<svg width="38" height="38" viewBox="0 0 38 38" fill="none" xmlns="http://www.w3.org/2000/svg">
<path d="M19.09 1C9.11572 1 1 9.07534 1 19C1 28.9247 9.11572 37 19.09 37C29.0643 37 37.18 28.9247 37.18 19C37.1738 9.07534 29.0643 1 19.09 1ZM19.09 2.0911C28.4324 2.0911 36.0401 9.6363 36.0835 18.9199C36.0401 27.1925 28.9528 31.5199 21.9522 31.5199C19.3874 31.5199 16.965 30.9466 14.9144 29.874C16.1473 30.3363 17.535 30.6014 19.09 30.6014C27.5836 30.6014 30.7556 23.4815 30.7556 18.9938C30.7556 18.9692 30.7556 18.9445 30.7556 18.9199C30.7556 18.8952 30.7556 18.8705 30.7556 18.8397C30.7556 18.6733 30.7494 18.5068 30.7432 18.3342C30.5883 14.3212 29.0333 10.9678 26.2145 8.60685C23.6063 6.42466 20.0626 5.2226 16.2278 5.2226C12.362 5.2226 8.56435 6.49247 5.81367 8.70548C5.62162 8.85959 5.43577 9.02603 5.25611 9.1863C8.34132 4.90205 13.3904 2.0911 19.09 2.0911ZM29.6466 19.3267C29.4979 23.4014 26.5862 29.5164 19.09 29.5164C12.139 29.5164 8.76879 23.6788 8.53337 19.4623C8.52717 19.2836 8.52098 19.1048 8.52098 18.9199C8.52098 18.8089 8.52717 18.6918 8.52717 18.5808C8.52717 18.5438 8.52717 18.5068 8.53337 18.4699C8.53957 18.3281 8.55196 18.1863 8.55815 18.0384C8.56435 17.989 8.57054 17.9336 8.57054 17.8781C9.02279 13.1685 12.3434 8.70548 18.3094 8.34794C18.4023 8.34178 18.4953 8.33562 18.5882 8.33562C18.7245 8.32945 18.867 8.32329 19.0095 8.32329C19.0342 8.32329 19.059 8.32329 19.0838 8.32329C26.0348 8.32329 29.405 14.161 29.6404 18.3774C29.6466 18.5562 29.6528 18.7349 29.6528 18.9199C29.6528 19.0555 29.6528 19.1911 29.6466 19.3267ZM19.09 35.9089C9.72285 35.9089 2.09655 28.3267 2.09655 19C2.09655 10.6781 9.20245 6.32603 16.2278 6.32603C18.7926 6.32603 21.215 6.89931 23.2718 7.97192C22.0389 7.50959 20.645 7.24452 19.0962 7.24452C18.867 7.24452 18.6378 7.25068 18.4085 7.26301C18.3714 7.26301 18.328 7.26301 18.2908 7.26918V7.27534C15.4844 7.44795 12.901 8.52055 10.9557 10.3452C8.83693 12.3301 7.64126 15.0178 7.4616 18.1555C7.4554 18.2048 7.4554 18.2603 7.44921 18.3096C7.44921 18.3774 7.44301 18.439 7.44301 18.5068C7.43682 18.624 7.43062 18.7411 7.43062 18.8521C7.43062 18.8767 7.43062 18.9815 7.43062 19.0062C7.43062 19.1726 7.43682 19.339 7.44301 19.5116C7.59789 23.5247 9.15289 26.8781 11.9717 29.239C14.5799 31.4212 18.1235 32.6233 21.9584 32.6233C25.8242 32.6233 29.6218 31.3534 32.3725 29.1404C32.6699 28.9 32.9611 28.6473 33.2337 28.3884C30.1732 32.913 24.9754 35.9089 19.09 35.9089Z" fill="#1A1A1A" stroke="#1A1A1A" stroke-miterlimit="10"/>
</svg>
