<svg width="24" height="30" viewBox="0 0 24 30" fill="none" xmlns="http://www.w3.org/2000/svg">
<g filter="url(#filter0_d_4_16415)">
<path d="M20 22H18V20C18 18.3431 16.6569 17 15 17H9C7.34315 17 6 18.3431 6 20V22H4V20C4 17.2386 6.23858 15 9 15H15C17.7614 15 20 17.2386 20 20V22ZM12 13C8.68629 13 6 10.3137 6 7C6 3.68629 8.68629 1 12 1C15.3137 1 18 3.68629 18 7C18 10.3137 15.3137 13 12 13ZM12 11C14.2091 11 16 9.20914 16 7C16 4.79086 14.2091 3 12 3C9.79086 3 8 4.79086 8 7C8 9.20914 9.79086 11 12 11Z" fill="#02061B"/>
</g>
<defs>
<filter id="filter0_d_4_16415" x="-4" y="0" width="32" height="32" filterUnits="userSpaceOnUse" color-interpolation-filters="sRGB">
<feFlood flood-opacity="0" result="BackgroundImageFix"/>
<feColorMatrix in="SourceAlpha" type="matrix" values="0 0 0 0 0 0 0 0 0 0 0 0 0 0 0 0 0 0 127 0" result="hardAlpha"/>
<feOffset dy="4"/>
<feGaussianBlur stdDeviation="2"/>
<feComposite in2="hardAlpha" operator="out"/>
<feColorMatrix type="matrix" values="0 0 0 0 0 0 0 0 0 0 0 0 0 0 0 0 0 0 0.25 0"/>
<feBlend mode="normal" in2="BackgroundImageFix" result="effect1_dropShadow_4_16415"/>
<feBlend mode="normal" in="SourceGraphic" in2="effect1_dropShadow_4_16415" result="shape"/>
</filter>
</defs>
</svg>
