<svg width="21" height="20" viewBox="0 0 21 20" fill="none" xmlns="http://www.w3.org/2000/svg">
<path d="M11.2592 19V12.4217C11.2592 12.1521 11.1503 11.8939 10.9572 11.7056L6.82759 7.68037C6.43924 7.30183 5.81994 7.30183 5.43159 7.68037L1.302 11.7056C1.1089 11.8939 1 12.1521 1 12.4217V18C1 18.5523 1.44771 19 2 19H6.12959M11.2592 19H6.12959M11.2592 19H18.4665C19.0188 19 19.4665 18.5523 19.4665 18V2C19.4665 1.73478 19.3584 1.48043 19.166 1.29289C18.9736 1.10536 18.7127 1 18.4406 1H8.18143C7.90933 1 7.64839 1.10536 7.45599 1.29289C7.26359 1.48043 7.15551 1.73478 7.15551 2V8M6.12959 19V15M11.2592 5V5.01M15.3629 5V5.01M15.3629 9V9.01M15.3629 13V13.01" stroke="#A4ACB9" stroke-width="2" stroke-linecap="round" stroke-linejoin="round"/>
</svg>
