<svg width="17" height="23" viewBox="0 0 17 23" fill="none" xmlns="http://www.w3.org/2000/svg">
<path d="M10.8488 7.27273C10.8488 6.71818 10.6182 6.18635 10.2078 5.79423C9.79733 5.40211 9.24065 5.18182 8.66019 5.18182M8.66019 16.6818C12.2867 16.6818 15.2261 12.4686 15.2261 7.27273C15.2261 5.6091 14.5343 4.0136 13.303 2.83724C12.0716 1.66087 10.4016 1 8.66019 1C6.91881 1 5.24875 1.66087 4.01741 2.83724C2.78607 4.0136 2.09431 5.6091 2.09431 7.27273C2.09431 12.4686 5.03364 16.6818 8.66019 16.6818ZM8.66019 16.6818V17.7273C8.66019 18.2818 8.4296 18.8136 8.01915 19.2058C7.60871 19.5979 7.05202 19.8182 6.47156 19.8182H3.18862C2.60817 19.8182 2.05148 20.0385 1.64103 20.4306C1.23059 20.8227 1 21.3545 1 21.9091" stroke="#A4ACB9" stroke-width="2" stroke-linecap="round" stroke-linejoin="round"/>
</svg>
