<svg width="76" height="48" viewBox="0 0 76 48" fill="none" xmlns="http://www.w3.org/2000/svg">
<path fill-rule="evenodd" clip-rule="evenodd" d="M16.4206 4.24027C19.6027 4.24027 22.4682 6.1861 23.6872 9.17396C24.9031 12.1586 24.2286 15.5936 21.9774 17.8768C19.7293 20.1603 16.3446 20.8422 13.4064 19.604C10.4681 18.3625 8.55562 15.4486 8.55878 12.2195C8.56195 7.81 12.0828 4.24027 16.4206 4.24027ZM57.3796 41.0433V44.2885C57.3764 46.3372 55.7394 47.9968 53.7225 48H22.2748C20.2578 47.9968 18.6209 46.3372 18.6177 44.2885V41.0433C18.6177 34.0094 22.3128 27.5123 28.3097 23.9942C34.3035 20.4788 41.6939 20.4788 47.6872 23.9942C53.6842 27.5127 57.3796 34.0094 57.3796 41.0433ZM37.9988 0.000822901C41.754 -0.00239312 45.142 2.29073 46.5795 5.81575C48.017 9.33748 47.2254 13.3964 44.5689 16.0912C41.9156 18.7896 37.9197 19.5969 34.453 18.1335C30.9827 16.6734 28.722 13.232 28.7251 9.41751C28.7251 4.21688 32.8793 0 37.9989 0L37.9988 0.000822901ZM59.577 4.23977C62.756 4.23977 65.6246 6.1856 66.8405 9.17347C68.0563 12.1581 67.3819 15.5931 65.1338 17.8763C62.8826 20.1598 59.4978 20.8417 56.5628 19.6035C53.6245 18.362 51.7089 15.4481 51.7152 12.219C51.7184 7.8095 55.2361 4.23977 59.577 4.23977ZM3.09642 44.78H16.7367V44.2847V41.0428C16.7462 34.5911 19.5927 28.4768 24.5036 24.3798C19.4217 21.4434 13.184 21.4788 8.13736 24.4698C3.0871 27.4609 -0.0129286 32.9578 4.05338e-05 38.895V41.6448C0.00320662 43.3784 1.38976 44.78 3.09642 44.78ZM76 38.8944H75.9968C76.0063 32.9605 72.9097 27.4703 67.866 24.4824C62.822 21.4913 56.591 21.4527 51.5119 24.3795C56.4197 28.477 59.2662 34.5907 59.2756 41.0425V44.2877V44.783L72.9005 44.7797C74.6072 44.7797 75.994 43.3775 75.9972 41.6439L76 38.8944Z" fill="url(#paint0_linear_9594_2145)"/>
<defs>
<linearGradient id="paint0_linear_9594_2145" x1="38" y1="0" x2="38" y2="48" gradientUnits="userSpaceOnUse">
<stop stop-color="#545968"/>
<stop offset="1" stop-color="#777887"/>
</linearGradient>
</defs>
</svg>
