<svg width="80" height="81" viewBox="0 0 80 81" fill="none" xmlns="http://www.w3.org/2000/svg">
<rect x="0.5" y="1" width="79" height="79" rx="39.5" fill="url(#paint0_linear_9007_2793)"/>
<rect x="0.5" y="1" width="79" height="79" rx="39.5" stroke="url(#paint1_linear_9007_2793)"/>
<g filter="url(#filter0_d_9007_2793)">
<rect x="16" y="16.5" width="48" height="48" rx="24" fill="white" shape-rendering="crispEdges"/>
<rect x="16.5" y="17" width="47" height="47" rx="23.5" stroke="#DFE1E7" shape-rendering="crispEdges"/>
<path d="M41.6667 42.3766V48.8333H33.3333C33.3333 45.1513 36.3181 42.1666 40 42.1666C40.5755 42.1666 41.134 42.2395 41.6667 42.3766ZM40 41.3333C37.2375 41.3333 35 39.0958 35 36.3333C35 33.5708 37.2375 31.3333 40 31.3333C42.7625 31.3333 45 33.5708 45 36.3333C45 39.0958 42.7625 41.3333 40 41.3333ZM45 44.6666V42.1666H46.6667V44.6666H49.1667V46.3333H46.6667V48.8333H45V46.3333H42.5V44.6666H45Z" fill="#272835"/>
</g>
<defs>
<filter id="filter0_d_9007_2793" x="14" y="15.5" width="52" height="52" filterUnits="userSpaceOnUse" color-interpolation-filters="sRGB">
<feFlood flood-opacity="0" result="BackgroundImageFix"/>
<feColorMatrix in="SourceAlpha" type="matrix" values="0 0 0 0 0 0 0 0 0 0 0 0 0 0 0 0 0 0 127 0" result="hardAlpha"/>
<feOffset dy="1"/>
<feGaussianBlur stdDeviation="1"/>
<feComposite in2="hardAlpha" operator="out"/>
<feColorMatrix type="matrix" values="0 0 0 0 0.0509804 0 0 0 0 0.0509804 0 0 0 0 0.0705882 0 0 0 0.06 0"/>
<feBlend mode="normal" in2="BackgroundImageFix" result="effect1_dropShadow_9007_2793"/>
<feBlend mode="normal" in="SourceGraphic" in2="effect1_dropShadow_9007_2793" result="shape"/>
</filter>
<linearGradient id="paint0_linear_9007_2793" x1="40" y1="0.5" x2="40" y2="80.5" gradientUnits="userSpaceOnUse">
<stop stop-color="#ECEFF3"/>
<stop offset="0.0001" stop-color="#ECEFF3"/>
<stop offset="1" stop-color="#ECEFF3" stop-opacity="0"/>
</linearGradient>
<linearGradient id="paint1_linear_9007_2793" x1="40" y1="0.5" x2="40" y2="80.5" gradientUnits="userSpaceOnUse">
<stop stop-color="#DFE1E7"/>
<stop offset="1" stop-color="#DFE1E7" stop-opacity="0"/>
</linearGradient>
</defs>
</svg>
