<svg width="20" height="20" viewBox="0 0 20 20" fill="none" xmlns="http://www.w3.org/2000/svg">
<path d="M14.6257 10.5315C15.4392 9.499 15.892 8.21825 15.892 6.8915C15.892 3.643 13.249 1 10 1C6.751 1 4.108 3.643 4.108 6.8915C4.108 8.21825 4.56075 9.499 5.37425 10.5315C2.6875 12.1442 1 15.073 1 18.25C1 18.664 1.33575 19 1.75 19H18.25C18.6642 19 19 18.664 19 18.25C19 15.073 17.3125 12.1442 14.6257 10.5315ZM2.53775 17.5C2.804 14.865 4.45875 12.5295 6.90475 11.4195C7.136 11.3145 7.2985 11.0998 7.3365 10.8488C7.3745 10.5972 7.28275 10.344 7.0925 10.1757C6.149 9.339 5.608 8.14175 5.608 6.89175C5.608 4.47025 7.57825 2.5 10 2.5C12.4218 2.5 14.392 4.47025 14.392 6.8915C14.392 8.1415 13.851 9.33875 12.9075 10.1755C12.7175 10.344 12.6257 10.5972 12.6635 10.8485C12.7013 11.0995 12.8638 11.3142 13.0953 11.4192C15.5413 12.5295 17.196 14.865 17.4622 17.5H2.53775Z" fill="#A4ACB9" stroke="#A4ACB9" stroke-width="0.6"/>
</svg>
