<svg width="27" height="29" viewBox="0 0 27 29" fill="none" xmlns="http://www.w3.org/2000/svg">
<g filter="url(#filter0_d_9127_3995)">
<path d="M16.6036 22.95C17.8047 22.95 18.4393 24.3324 17.6381 25.2018C17.1176 25.7681 16.4799 26.221 15.7668 26.5309C15.0536 26.8408 14.2812 27.0006 13.5001 27C12.7189 27.0006 11.9465 26.8408 11.2334 26.5309C10.5202 26.221 9.88252 25.7681 9.36203 25.2018C8.59552 24.3702 9.14263 23.0701 10.2424 22.9594L10.3951 22.9513L16.6036 22.95Z" fill="url(#paint0_linear_9127_3995)"/>
<path d="M13.5 0C15.3857 0 16.9799 1.21905 17.4922 2.89035L17.5561 3.1212L17.5672 3.17925C19.098 4.01882 20.4024 5.19899 21.3737 6.6231C22.3449 8.04721 22.9553 9.67475 23.1549 11.3724L23.1938 11.7598L23.2202 12.15V16.1068L23.2494 16.2904C23.4395 17.2852 24.0057 18.1747 24.8365 18.7839L25.0684 18.9418L25.2934 19.0755C26.4876 19.7329 26.071 21.4596 24.7699 21.5919L24.6088 21.6H2.39124C0.963758 21.6 0.465251 19.7586 1.70666 19.0755C2.23576 18.7844 2.69291 18.3842 3.04602 17.9031C3.39913 17.422 3.63964 16.8716 3.75068 16.2904L3.77984 16.0974L3.78122 12.0879C3.86589 10.3246 4.39382 8.60842 5.3188 7.08948C6.24378 5.57054 7.53761 4.29517 9.08706 3.375L9.43143 3.1779L9.44532 3.11985C9.64174 2.31258 10.0882 1.58333 10.7243 1.0305C11.3605 0.477678 12.1558 0.127892 13.0029 0.0283499L13.2556 0.00539993L13.5 0Z" fill="url(#paint1_linear_9127_3995)"/>
<path d="M16.6036 22.95C17.8047 22.95 18.4393 24.3324 17.6381 25.2018C17.1176 25.7681 16.4799 26.221 15.7668 26.5309C15.0536 26.8408 14.2812 27.0006 13.5001 27C12.7189 27.0006 11.9465 26.8408 11.2334 26.5309C10.5202 26.221 9.88252 25.7681 9.36203 25.2018C8.59552 24.3702 9.14263 23.0701 10.2424 22.9594L10.3951 22.9513L16.6036 22.95Z" stroke="black"/>
<path d="M13.5 0C15.3857 0 16.9799 1.21905 17.4922 2.89035L17.5561 3.1212L17.5672 3.17925C19.098 4.01882 20.4024 5.19899 21.3737 6.6231C22.3449 8.04721 22.9553 9.67475 23.1549 11.3724L23.1938 11.7598L23.2202 12.15V16.1068L23.2494 16.2904C23.4395 17.2852 24.0057 18.1747 24.8365 18.7839L25.0684 18.9418L25.2934 19.0755C26.4876 19.7329 26.071 21.4596 24.7699 21.5919L24.6088 21.6H2.39124C0.963758 21.6 0.465251 19.7586 1.70666 19.0755C2.23576 18.7844 2.69291 18.3842 3.04602 17.9031C3.39913 17.422 3.63964 16.8716 3.75068 16.2904L3.77984 16.0974L3.78122 12.0879C3.86589 10.3246 4.39382 8.60842 5.3188 7.08948C6.24378 5.57054 7.53761 4.29517 9.08706 3.375L9.43143 3.1779L9.44532 3.11985C9.64174 2.31258 10.0882 1.58333 10.7243 1.0305C11.3605 0.477678 12.1558 0.127892 13.0029 0.0283499L13.2556 0.00539993L13.5 0Z" stroke="black"/>
</g>
<defs>
<filter id="filter0_d_9127_3995" x="0" y="0" width="27" height="29" filterUnits="userSpaceOnUse" color-interpolation-filters="sRGB">
<feFlood flood-opacity="0" result="BackgroundImageFix"/>
<feColorMatrix in="SourceAlpha" type="matrix" values="0 0 0 0 0 0 0 0 0 0 0 0 0 0 0 0 0 0 127 0" result="hardAlpha"/>
<feOffset dy="1"/>
<feGaussianBlur stdDeviation="0.5"/>
<feComposite in2="hardAlpha" operator="out"/>
<feColorMatrix type="matrix" values="0 0 0 0 0 0 0 0 0 0 0 0 0 0 0 0 0 0 0.25 0"/>
<feBlend mode="normal" in2="BackgroundImageFix" result="effect1_dropShadow_9127_3995"/>
<feBlend mode="normal" in="SourceGraphic" in2="effect1_dropShadow_9127_3995" result="shape"/>
</filter>
<linearGradient id="paint0_linear_9127_3995" x1="13.5" y1="0" x2="13.5" y2="27" gradientUnits="userSpaceOnUse">
<stop stop-color="#818898"/>
<stop offset="1" stop-color="#BDC4D3"/>
</linearGradient>
<linearGradient id="paint1_linear_9127_3995" x1="13.5" y1="0" x2="13.5" y2="27" gradientUnits="userSpaceOnUse">
<stop stop-color="#818898"/>
<stop offset="1" stop-color="#BDC4D3"/>
</linearGradient>
</defs>
</svg>
