<svg width="20" height="21" viewBox="0 0 20 21" fill="none" xmlns="http://www.w3.org/2000/svg">
<path d="M3.60498 20H16.73C17.2273 20 17.7042 19.7998 18.0558 19.4435C18.4074 19.0872 18.605 18.6039 18.605 18.1V5.75L13.9175 1H5.47998C4.9827 1 4.50579 1.20018 4.15416 1.5565C3.80252 1.91282 3.60498 2.39609 3.60498 2.9V6.7" stroke="#A4ACB9" stroke-width="2" stroke-linecap="round" stroke-linejoin="round"/>
<path d="M12.9434 1V4.6C12.9434 5.07739 13.1355 5.53523 13.4776 5.87279C13.8196 6.21036 14.2835 6.4 14.7672 6.4H18.4149" stroke="#A4ACB9" stroke-width="2" stroke-linecap="round" stroke-linejoin="round"/>
<path d="M5.10367 11.6667C5.10367 10.7462 4.18503 10 3.05184 10C1.91864 10 1 10.7462 1 11.6667V13.3333C1 14.2538 1.91864 15 3.05184 15C4.18503 15 5.10367 14.2538 5.10367 13.3333V11.6667Z" stroke="#A4ACB9" stroke-width="1.6" stroke-linecap="round" stroke-linejoin="round"/>
<path d="M7.15527 10H9.20711V15" stroke="#A4ACB9" stroke-width="1.6" stroke-linecap="round" stroke-linejoin="round"/>
</svg>
