<svg width="16" height="18" viewBox="0 0 16 18" fill="none" xmlns="http://www.w3.org/2000/svg">
<path d="M13 6.16658H14.6667C15.1269 6.16658 15.5 6.53969 15.5 6.99992V16.9999C15.5 17.4602 15.1269 17.8333 14.6667 17.8333H1.33333C0.8731 17.8333 0.5 17.4602 0.5 16.9999V6.99992C0.5 6.53969 0.8731 6.16658 1.33333 6.16658H3V5.33325C3 2.57183 5.23857 0.333252 8 0.333252C10.7614 0.333252 13 2.57183 13 5.33325V6.16658ZM2.16667 7.83325V16.1666H13.8333V7.83325H2.16667ZM7.16667 11.1666H8.83333V12.8333H7.16667V11.1666ZM3.83333 11.1666H5.5V12.8333H3.83333V11.1666ZM10.5 11.1666H12.1667V12.8333H10.5V11.1666ZM11.3333 6.16658V5.33325C11.3333 3.4923 9.84092 1.99992 8 1.99992C6.15905 1.99992 4.66667 3.4923 4.66667 5.33325V6.16658H11.3333Z" fill="#818898"/>
</svg>
