<svg width="43" height="50" viewBox="0 0 43 50" fill="none" xmlns="http://www.w3.org/2000/svg">
<path d="M28.6317 9.15538H14.3669C12.7195 9.15538 11.6147 7.50796 12.2156 5.9962L12.6613 4.89146L13.7855 2.06176C14.1343 1.1896 14.9871 0.608154 15.9368 0.608154H27.0618C28.0115 0.608154 28.8642 1.1896 29.2131 2.06176L30.3372 4.89146L30.783 5.9962C31.3838 7.50796 30.2791 9.15538 28.6317 9.15538Z" fill="url(#paint0_linear_9594_2135)"/>
<path d="M36.4729 5H33.7196L33.7255 5.01324C34.3842 6.60214 34.1804 8.37264 33.1895 9.7686C32.1986 11.1665 30.549 11.9987 28.7787 11.9987H14.2212C12.449 11.9987 10.8014 11.1665 9.81049 9.7686C8.81955 8.37453 8.61582 6.60214 9.26656 5.03216L9.2804 5H6.52714C2.92732 5 0 7.7995 0 11.2421V43.7579C0 47.2005 2.92732 50 6.52714 50H36.4729C40.0727 50 43 47.2005 43 43.7579V11.2421C43 7.7995 40.0727 5 36.4729 5ZM27.4674 35.1513H15.5346C14.5516 35.1513 13.7545 34.389 13.7545 33.4489C13.7545 32.5088 14.5516 31.7465 15.5346 31.7465H27.4674C28.4504 31.7465 29.2475 32.5088 29.2475 33.4489C29.2475 34.389 28.4504 35.1513 27.4674 35.1513ZM32.4241 27.4206H10.5759C9.59292 27.4206 8.79581 26.6583 8.79581 25.7182C8.79581 24.7781 9.59292 24.0158 10.5759 24.0158H32.426C33.4091 24.0158 34.2062 24.7781 34.2062 25.7182C34.2062 26.6583 33.4091 27.4206 32.4241 27.4206Z" fill="url(#paint1_linear_9594_2135)"/>
<defs>
<linearGradient id="paint0_linear_9594_2135" x1="21.4993" y1="0.608154" x2="21.4993" y2="9.15538" gradientUnits="userSpaceOnUse">
<stop stop-color="#545968"/>
<stop offset="1" stop-color="#777887"/>
</linearGradient>
<linearGradient id="paint1_linear_9594_2135" x1="21.5" y1="5" x2="21.5" y2="50" gradientUnits="userSpaceOnUse">
<stop stop-color="#545968"/>
<stop offset="1" stop-color="#777887"/>
</linearGradient>
</defs>
</svg>
