<svg width="12" height="12" viewBox="0 0 12 12" fill="none" xmlns="http://www.w3.org/2000/svg">
<path d="M11.5385 12H0.461538C0.209231 12 0 11.7733 0 11.5C0 11.2267 0.209231 11 0.461538 11H11.5385C11.7908 11 12 11.2267 12 11.5C12 11.7733 11.7908 12 11.5385 12Z" fill="white"/>
<path d="M10.9711 0.859722C9.73657 -0.271944 8.52748 -0.301111 7.26111 0.859722L6.49111 1.56556C6.42748 1.62389 6.40202 1.71722 6.42748 1.79889C6.91112 3.34472 8.26021 4.58139 9.94657 5.02472C9.97202 5.03056 9.99748 5.03639 10.0229 5.03639C10.0929 5.03639 10.1566 5.01306 10.2075 4.96639L10.9711 4.26056C11.6011 3.68889 11.9066 3.13472 11.9066 2.57472C11.9129 1.99722 11.6075 1.43722 10.9711 0.859722Z" fill="white"/>
<path d="M8.80111 5.55555C8.61657 5.47389 8.43839 5.39222 8.26657 5.29889C8.12657 5.22305 7.99293 5.14139 7.8593 5.05389C7.75112 4.98972 7.62384 4.89639 7.50293 4.80305C7.49021 4.79722 7.44566 4.76222 7.39475 4.71555C7.18475 4.55222 6.9493 4.34222 6.7393 4.10889C6.72021 4.09722 6.68839 4.05639 6.64384 4.00389C6.58021 3.93389 6.47202 3.81722 6.37657 3.68305C6.30021 3.59555 6.21112 3.46722 6.12839 3.33889C6.02657 3.18139 5.93748 3.02389 5.84839 2.86055V2.86055C5.72781 2.62371 5.41682 2.55032 5.22091 2.72991L1.6293 6.02222C1.54657 6.09805 1.47021 6.24389 1.45112 6.34305L1.10748 8.57722C1.04384 8.97389 1.16475 9.34722 1.43202 9.59805C1.66112 9.80222 1.9793 9.91305 2.32293 9.91305C2.3993 9.91305 2.47566 9.90722 2.55202 9.89555L4.99566 9.58055C5.11021 9.56305 5.2693 9.49305 5.34566 9.41722L8.91726 6.14325C9.10725 5.96909 9.04064 5.6507 8.80111 5.55555V5.55555Z" fill="white"/>
</svg>
