<svg width="15" height="20" viewBox="0 0 15 20" fill="none" xmlns="http://www.w3.org/2000/svg">
<path d="M7.2822 19L2.69009 12.0377C2.62138 11.9185 1 9.32027 1 7.55531C1 6.67338 1.15973 5.81471 1.50239 5.00455C1.82184 4.2176 2.27872 3.52659 2.84982 2.93056C3.42092 2.33453 4.10624 1.85771 4.83707 1.52431C5.6134 1.19092 6.43615 1 7.28115 1C8.1262 1 8.94895 1.1667 9.72523 1.52431C10.4793 1.85771 11.1414 2.33453 11.7125 2.93056C12.2836 3.52659 12.7405 4.24182 13.0599 5.00455C13.3794 5.81476 13.5623 6.67342 13.5623 7.55531C13.5623 9.31917 11.9177 11.9416 11.849 12.0608L7.2822 19ZM3.26119 11.6326L7.2822 17.7364L11.2799 11.6569C11.3254 11.5619 12.879 9.08185 12.879 7.5565C12.879 4.33795 10.3661 1.71542 7.2822 1.71542C4.19826 1.71542 1.68541 4.33795 1.68541 7.5565C1.68541 9.08195 3.19348 11.5377 3.26129 11.6329L3.26119 11.6326Z" fill="#A4ACB9" stroke="#A4ACB9"/>
</svg>
