<svg width="17" height="19" viewBox="0 0 17 19" fill="none" xmlns="http://www.w3.org/2000/svg">
<path d="M2.75586 18H14.3445C14.7835 18 15.2046 17.8256 15.5151 17.5151C15.8256 17.2046 16 16.7835 16 16.3445V5.58361L11.8612 1.44482H4.41137C3.9723 1.44482 3.55122 1.61924 3.24075 1.92971C2.93028 2.24018 2.75586 2.66127 2.75586 3.10034V6.41137" stroke="#818898" stroke-width="2" stroke-linecap="round" stroke-linejoin="round"/>
<path d="M11.0334 1.44482V4.75585C11.0334 5.19492 11.2079 5.61601 11.5183 5.92648C11.8288 6.23695 12.2499 6.41137 12.689 6.41137H16" stroke="#818898" stroke-width="2" stroke-linecap="round" stroke-linejoin="round"/>
<path d="M1.1001 10.5502V9.72241H6.06664V10.5502" stroke="#818898" stroke-width="2" stroke-linecap="round" stroke-linejoin="round"/>
<path d="M3.58325 9.72241V14.689" stroke="#818898" stroke-width="2" stroke-linecap="round" stroke-linejoin="round"/>
<path d="M2.75586 14.6891H4.41137" stroke="#818898" stroke-width="2" stroke-linecap="round" stroke-linejoin="round"/>
</svg>
