<svg width="10" height="12" viewBox="0 0 10 12" fill="none" xmlns="http://www.w3.org/2000/svg">
<path d="M9.64538 2.17883C8.8204 2.09124 7.99542 2.02555 7.16532 1.97628V1.9708L7.05259 1.25912C6.97572 0.755474 6.86299 0 5.66396 0H4.32144C3.12753 0 3.0148 0.722628 2.93281 1.25365L2.82521 1.95438C2.34867 1.98723 1.87213 2.02007 1.39559 2.06934L0.350271 2.17883C0.135059 2.20073 -0.0186642 2.40328 0.00183213 2.62774C0.0223285 2.85219 0.206796 3.01642 0.422008 2.99453L1.46732 2.88504C4.15235 2.60036 6.85787 2.70985 9.57364 3C9.58901 3 9.59926 3 9.61463 3C9.80935 3 9.97844 2.84124 9.99894 2.62774C10.0143 2.40328 9.86059 2.20073 9.64538 2.17883Z" fill="white"/>
<path d="M8.81933 4.20786C8.69254 4.07462 8.51822 4 8.33861 4H1.66139C1.48178 4 1.30217 4.07462 1.18067 4.20786C1.05917 4.34111 0.990499 4.52232 1.00106 4.70886L1.32859 10.1772C1.3867 10.9873 1.46065 12 3.30428 12H6.69572C8.53935 12 8.61331 10.9927 8.67141 10.1772L8.99894 4.71419C9.0095 4.52232 8.94083 4.34111 8.81933 4.20786ZM5.87691 9.32978H4.1178C3.90122 9.32978 3.72161 9.14857 3.72161 8.93005C3.72161 8.71153 3.90122 8.53031 4.1178 8.53031H5.87691C6.0935 8.53031 6.27311 8.71153 6.27311 8.93005C6.27311 9.14857 6.0935 9.32978 5.87691 9.32978ZM6.32065 7.19787H3.67935C3.46276 7.19787 3.28315 7.01666 3.28315 6.79813C3.28315 6.57961 3.46276 6.3984 3.67935 6.3984H6.32065C6.53724 6.3984 6.71685 6.57961 6.71685 6.79813C6.71685 7.01666 6.53724 7.19787 6.32065 7.19787Z" fill="white"/>
</svg>
