<svg width="16" height="18" viewBox="0 0 16 18" fill="none" xmlns="http://www.w3.org/2000/svg">
<path d="M7.99992 13.1667C11.0519 13.1667 13.7207 14.4793 15.1725 16.4373L13.6375 17.1634C12.4561 15.7631 10.3727 14.8334 7.99992 14.8334C5.62707 14.8334 3.54377 15.7631 2.36232 17.1634L0.827957 16.4365C2.2798 14.4789 4.9483 13.1667 7.99992 13.1667ZM7.99992 0.666687C10.3011 0.666687 12.1666 2.53217 12.1666 4.83335V7.33335C12.1666 9.57402 10.398 11.4015 8.18067 11.4962L7.99992 11.5C5.69872 11.5 3.83325 9.63452 3.83325 7.33335V4.83335C3.83325 2.59273 5.60183 0.76517 7.81917 0.670537L7.99992 0.666687ZM7.99992 2.33335C6.6685 2.33335 5.58019 3.37412 5.50416 4.68646L5.49992 4.83335V7.33335C5.49992 8.7141 6.61917 9.83335 7.99992 9.83335C9.33133 9.83335 10.4197 8.7926 10.4957 7.48027L10.4999 7.33335V4.83335C10.4999 3.45265 9.38058 2.33335 7.99992 2.33335Z" fill="#818898"/>
</svg>
