<svg width="58" height="58" viewBox="0 0 58 58" fill="none" xmlns="http://www.w3.org/2000/svg">
<path d="M2.76387 34.1312L7.10203 34.9183C7.61076 36.8115 8.36484 38.63 9.34509 40.3277L6.81203 43.9438C6.3618 44.5873 6.15243 45.3687 6.2206 46.1511C6.28878 46.9335 6.63015 47.6669 7.18489 48.2228L9.78896 50.8269C10.3449 51.3816 11.0783 51.723 11.8607 51.7912C12.643 51.8593 13.4245 51.65 14.0679 51.1997L17.6781 48.6667C19.3749 49.6416 21.1913 50.3916 23.0816 50.8979L23.8451 55.242C23.9833 56.0188 24.3918 56.7218 24.9983 57.2265C25.6048 57.7312 26.3703 58.0051 27.1593 57.9999H30.8465C31.6323 57.9993 32.3928 57.722 32.9945 57.2166C33.5963 56.7112 34.0008 56.01 34.1371 55.2361L34.9183 50.8979C36.8113 50.3886 38.6297 49.6345 40.3277 48.6548L43.9438 51.1879C44.5878 51.6397 45.3704 51.85 46.1541 51.7818C46.9378 51.7136 47.6724 51.3713 48.2287 50.815L50.8328 48.211C51.3875 47.6551 51.7289 46.9216 51.797 46.1393C51.8652 45.3569 51.6558 44.5755 51.2056 43.932L48.6489 40.3099C49.6295 38.618 50.3855 36.8056 50.8979 34.9183L55.2419 34.1549C56.0193 34.0177 56.7229 33.6095 57.2278 33.0028C57.7327 32.396 58.0063 31.6299 57.9999 30.8406V27.1594C57.9993 26.3735 57.7219 25.613 57.2165 25.0113C56.7111 24.4096 56.0099 24.0051 55.236 23.8687L50.8979 23.0816C50.3887 21.1886 49.6347 19.3701 48.6548 17.6722L51.1879 14.0561C51.6397 13.4121 51.8499 12.6295 51.7818 11.8458C51.7136 11.0621 51.3712 10.3275 50.815 9.77121L48.2109 7.16714C47.6547 6.61089 46.9201 6.26857 46.1364 6.20038C45.3527 6.13218 44.57 6.34248 43.926 6.79428L40.3099 9.35101C38.618 8.37043 36.8055 7.61441 34.9183 7.10203L34.1371 2.76388C34.0006 1.98896 33.5952 1.28699 32.9923 0.781461C32.3893 0.275929 31.6274 -0.000783741 30.8406 1.66736e-06H27.1593C26.3735 0.000608088 25.613 0.277952 25.0113 0.783363C24.4095 1.28877 24.005 1.98996 23.8687 2.76388L23.0816 7.10203C21.1886 7.61134 19.3701 8.36539 17.6722 9.34509L14.062 6.81203C13.4185 6.36181 12.6371 6.15243 11.8547 6.22061C11.0724 6.28878 10.3389 6.63015 9.78304 7.18489L7.17897 9.78897C6.62272 10.3452 6.28041 11.0798 6.21221 11.8635C6.14402 12.6472 6.35431 13.4299 6.80611 14.0739L9.33917 17.6841C8.36192 19.3783 7.60986 21.1928 7.10203 23.0816L2.76387 23.8628C1.98896 23.9993 1.28699 24.4047 0.78146 25.0076C0.275929 25.6106 -0.00078374 26.3725 1.66736e-06 27.1594V30.8465C0.00199675 31.6313 0.279971 32.3904 0.785261 32.9909C1.29055 33.5914 1.99096 33.9951 2.76387 34.1312ZM28.9999 15.1392C30.3016 15.1392 31.574 15.5251 32.6563 16.2483C33.7385 16.9715 34.5821 17.9993 35.0802 19.2019C35.5783 20.4044 35.7086 21.7277 35.4547 23.0043C35.2008 24.2809 34.574 25.4536 33.6536 26.374C32.7332 27.2944 31.5605 27.9212 30.2839 28.1751C29.0072 28.4291 27.684 28.2987 26.4814 27.8006C25.2789 27.3025 24.251 26.459 23.5279 25.3767C22.8047 24.2944 22.4187 23.022 22.4187 21.7204C22.4203 19.9754 23.1142 18.3024 24.3481 17.0685C25.5819 15.8346 27.255 15.1407 28.9999 15.1392ZM18.9387 31.9591C19.4665 31.368 20.113 30.8948 20.836 30.5705C21.5591 30.2462 22.3424 30.0781 23.1349 30.0771H25.0465C25.1487 30.0764 25.2498 30.0989 25.3421 30.143C25.4344 30.1871 25.5154 30.2516 25.5791 30.3316L28.7869 34.3265C28.8993 34.4626 29.0059 34.4685 29.1183 34.3265L32.3083 30.3434C32.372 30.2634 32.453 30.1989 32.5453 30.1548C32.6376 30.1108 32.7387 30.0882 32.841 30.0889H34.8532C35.6458 30.0889 36.4294 30.2563 37.1528 30.5801C37.8763 30.9039 38.5231 31.3768 39.0511 31.9679C39.5791 32.5591 39.9763 33.255 40.2167 34.0103C40.4571 34.7655 40.5352 35.563 40.446 36.3506L40.3632 37.0016C39.9034 37.654 39.3886 38.2658 38.8244 38.8304C37.3971 40.2718 35.6697 41.3812 33.7652 42.0797C31.8606 42.7782 29.8256 43.0487 27.8047 42.8718C25.7839 42.695 23.8267 42.0752 22.0725 41.0566C20.3182 40.0379 18.8098 38.6454 17.6545 36.9779L17.5716 36.3506C17.4782 35.5636 17.5517 34.7658 17.7872 34.0092C18.0228 33.2525 18.4151 32.554 18.9387 31.9591Z" fill="url(#paint0_linear_9600_2213)"/>
<defs>
<linearGradient id="paint0_linear_9600_2213" x1="29" y1="0" x2="29" y2="58" gradientUnits="userSpaceOnUse">
<stop stop-color="#545968"/>
<stop offset="1" stop-color="#777887"/>
</linearGradient>
</defs>
</svg>
